<?xml version="1.0" encoding="utf-8"?>
<!-- Generator: Adobe Illustrator 25.0.1, SVG Export Plug-In . SVG Version: 6.00 Build 0)  -->
<svg version="1.1" baseProfile="tiny" id="Layer_1" xmlns="http://www.w3.org/2000/svg" xmlns:xlink="http://www.w3.org/1999/xlink"
	 x="0px" y="0px" viewBox="0 0 569 180" overflow="visible" xml:space="preserve">
<g>
	<path fill="#F75757" stroke="#F75757" stroke-miterlimit="10" d="M42.9,55.8h22.9c18,0,30.2,12.3,30.2,31.3
		c0,18.9-11.9,32.6-30.4,32.6H42.9V55.8z M51.4,112.6h13.4c15.1,0,22.2-10.8,22.2-25.3C87,74.7,80.5,63,64.9,63H51.4V112.6z"/>
	<path fill="#F75757" stroke="#F75757" stroke-miterlimit="10" d="M127.1,119.7v-16.5H98.6v-7.7l27.5-39.7h8.6v40.1h7.8l-0.9,7.3h-7
		v16.5H127.1z M127.1,79.8c0-4.9,0.1-11.2,0.2-15.4c-2.5,4.9-14.3,22-20.7,31.5h20.5V79.8z"/>
</g>
<circle fill="none" stroke="#F75757" stroke-width="6" stroke-miterlimit="10" cx="88.7" cy="87.3" r="79.5"/>
<g>
	<path fill="#F75757" d="M231.3,118.7l-4.5-12.9h-26.3l-4.5,12.9h-10.8l22.5-63h12l22.5,63H231.3z M203.2,97.8H224l-10.3-29.6
		L203.2,97.8z"/>
	<path fill="#F75757" d="M262.3,68.8v7.9c3.3-5.8,8.6-8.7,15.9-8.7c5.6,0,10.2,1.9,13.9,5.6c3.7,3.7,5.5,9,5.5,15.7v29.4h-10.2V90.8
		c0-4.5-1.1-7.9-3.4-10.3c-2.2-2.4-5.3-3.6-9.1-3.6c-3.9,0-6.9,1.2-9.2,3.6c-2.3,2.4-3.4,5.8-3.4,10.3v27.9H252V68.8H262.3z"/>
	<path fill="#F75757" d="M314.1,112.2c-4.5-4.9-6.8-11.1-6.8-18.7c0-7.6,2.2-13.7,6.7-18.5c4.5-4.7,10.1-7.1,16.8-7.1
		c3.9,0,7.4,0.9,10.4,2.7c3,1.8,5.3,4.1,6.9,7v-8.9h10.4v49.9h-10.4v-9.3c-1.7,3.1-4,5.5-7,7.4c-3,1.8-6.4,2.8-10.3,2.8
		C324.2,119.5,318.6,117.1,314.1,112.2z M343.6,106c3-3,4.5-7.1,4.5-12.3c0-5.1-1.5-9.2-4.5-12.2c-3-3-6.5-4.5-10.6-4.5
		c-4.1,0-7.7,1.5-10.6,4.4c-3,3-4.5,7-4.5,12.1c0,5.1,1.5,9.3,4.5,12.4c3,3.1,6.5,4.7,10.6,4.7C337.1,110.6,340.6,109,343.6,106z"/>
	<path fill="#F75757" d="M372.1,118.7v-67h10.3v67H372.1z"/>
	<path fill="#F75757" d="M409.8,117.9l-19.6-49.1h11.5l14,38l14.6-38h10.7l-30.6,73.3h-10.7L409.8,117.9z"/>
	<path fill="#F75757" d="M446.4,83.1c0-4.2,1.8-7.8,5.3-10.7c3.6-2.9,8.2-4.4,14-4.4c5.8,0,10.4,1.4,13.8,4.3
		c3.4,2.9,5.2,6.8,5.5,11.7h-10.6c-0.2-2.5-1-4.4-2.6-5.8c-1.5-1.4-3.7-2.1-6.5-2.1c-2.8,0-4.9,0.6-6.5,1.9
		c-1.6,1.2-2.4,2.9-2.4,4.9c0,2,1,3.6,3,4.8c2,1.1,4.4,2,7.3,2.5c2.9,0.5,5.7,1.2,8.6,2c2.9,0.8,5.3,2.2,7.3,4.3c2,2.1,3,4.9,3,8.4
		c0,4.3-1.8,7.9-5.5,10.6c-3.7,2.7-8.3,4.1-14.1,4.1c-5.7,0-10.4-1.4-13.9-4.2c-3.6-2.8-5.5-6.7-5.9-11.9H457
		c0.2,2.5,1.1,4.4,2.7,5.8c1.6,1.4,3.8,2.1,6.7,2.1c2.8,0,5-0.6,6.7-1.9c1.7-1.2,2.5-2.9,2.5-4.9c0-2.1-1-3.7-3-4.8
		c-2-1.1-4.4-2-7.3-2.6c-2.9-0.6-5.7-1.2-8.6-2c-2.9-0.8-5.3-2.1-7.3-4.1C447.4,89.1,446.4,86.5,446.4,83.1z"/>
	<path fill="#F75757" d="M508.8,55.6c0,1.9-0.6,3.4-1.9,4.7c-1.3,1.3-2.8,1.9-4.7,1.9c-1.8,0-3.4-0.6-4.7-1.9
		c-1.3-1.3-1.9-2.8-1.9-4.7c0-1.9,0.6-3.4,1.9-4.7c1.3-1.3,2.8-1.9,4.7-1.9c1.8,0,3.4,0.6,4.7,1.9C508.2,52.2,508.8,53.7,508.8,55.6
		z M497.1,118.7V68.8h10.3v49.9H497.1z"/>
	<path fill="#F75757" d="M518.7,83.1c0-4.2,1.8-7.8,5.3-10.7c3.6-2.9,8.2-4.4,14-4.4c5.8,0,10.4,1.4,13.8,4.3
		c3.4,2.9,5.2,6.8,5.5,11.7h-10.6c-0.2-2.5-1-4.4-2.6-5.8c-1.5-1.4-3.7-2.1-6.5-2.1c-2.8,0-4.9,0.6-6.5,1.9
		c-1.6,1.2-2.4,2.9-2.4,4.9c0,2,1,3.6,3,4.8c2,1.1,4.4,2,7.3,2.5c2.9,0.5,5.7,1.2,8.6,2c2.9,0.8,5.3,2.2,7.3,4.3c2,2.1,3,4.9,3,8.4
		c0,4.3-1.8,7.9-5.5,10.6c-3.7,2.7-8.3,4.1-14.1,4.1c-5.7,0-10.4-1.4-13.9-4.2c-3.6-2.8-5.5-6.7-5.9-11.9h10.7
		c0.2,2.5,1.1,4.4,2.7,5.8c1.6,1.4,3.8,2.1,6.7,2.1c2.8,0,5-0.6,6.7-1.9c1.7-1.2,2.5-2.9,2.5-4.9c0-2.1-1-3.7-3-4.8
		c-2-1.1-4.4-2-7.3-2.6c-2.9-0.6-5.7-1.2-8.6-2c-2.9-0.8-5.3-2.1-7.3-4.1C519.7,89.1,518.7,86.5,518.7,83.1z"/>
</g>
</svg>
